<mxfile host="app.diagrams.net" agent="Mozilla/5.0 (Windows NT 10.0; Win64; x64) AppleWebKit/537.36 (KHTML, like Gecko) Chrome/131.0.0.0 Safari/537.36" version="25.0.1">
  <diagram name="หน้า-1" id="cTcPacoOQ0r4Y963yuZg">
    <mxGraphModel dx="1050" dy="530" grid="1" gridSize="10" guides="1" tooltips="1" connect="1" arrows="1" fold="1" page="1" pageScale="1" pageWidth="827" pageHeight="1169" math="0" shadow="0">
      <root>
        <mxCell id="0" />
        <mxCell id="1" parent="0" />
        <mxCell id="tuNf-Xwak3YVsa00I4k9-3" value="" style="edgeStyle=orthogonalEdgeStyle;rounded=0;orthogonalLoop=1;jettySize=auto;html=1;" edge="1" parent="1" source="tuNf-Xwak3YVsa00I4k9-1" target="tuNf-Xwak3YVsa00I4k9-2">
          <mxGeometry relative="1" as="geometry" />
        </mxCell>
        <mxCell id="tuNf-Xwak3YVsa00I4k9-1" value="Start" style="ellipse;whiteSpace=wrap;html=1;" vertex="1" parent="1">
          <mxGeometry x="354" y="10" width="120" height="80" as="geometry" />
        </mxCell>
        <mxCell id="tuNf-Xwak3YVsa00I4k9-5" value="" style="edgeStyle=orthogonalEdgeStyle;rounded=0;orthogonalLoop=1;jettySize=auto;html=1;" edge="1" parent="1" source="tuNf-Xwak3YVsa00I4k9-2" target="tuNf-Xwak3YVsa00I4k9-4">
          <mxGeometry relative="1" as="geometry" />
        </mxCell>
        <mxCell id="tuNf-Xwak3YVsa00I4k9-2" value="Input n" style="shape=parallelogram;perimeter=parallelogramPerimeter;whiteSpace=wrap;html=1;fixedSize=1;" vertex="1" parent="1">
          <mxGeometry x="354" y="180" width="120" height="60" as="geometry" />
        </mxCell>
        <mxCell id="tuNf-Xwak3YVsa00I4k9-7" value="" style="edgeStyle=orthogonalEdgeStyle;rounded=0;orthogonalLoop=1;jettySize=auto;html=1;" edge="1" parent="1" source="tuNf-Xwak3YVsa00I4k9-4" target="tuNf-Xwak3YVsa00I4k9-6">
          <mxGeometry relative="1" as="geometry" />
        </mxCell>
        <mxCell id="tuNf-Xwak3YVsa00I4k9-4" value="1 num1 + 1 num 2 + 2 num3 + 3 num4 + 5 num5 + ... + numn" style="shape=parallelogram;perimeter=parallelogramPerimeter;whiteSpace=wrap;html=1;fixedSize=1;" vertex="1" parent="1">
          <mxGeometry x="241" y="330" width="346" height="60" as="geometry" />
        </mxCell>
        <mxCell id="tuNf-Xwak3YVsa00I4k9-6" value="End" style="ellipse;whiteSpace=wrap;html=1;" vertex="1" parent="1">
          <mxGeometry x="354" y="480" width="120" height="80" as="geometry" />
        </mxCell>
      </root>
    </mxGraphModel>
  </diagram>
</mxfile>
